<svg width="174" height="27" viewBox="0 0 174 27"  xmlns="http://www.w3.org/2000/svg">
    <path
        d="M14.12 6.32V23H11.384V15.704H3.536V23H0.8V6.32H3.536V13.472H11.384V6.32H14.12ZM29.8419 16.064C29.8419 16.56 29.8099 17.008 29.7459 17.408H19.6419C19.7219 18.464 20.1139 19.312 20.8179 19.952C21.5219 20.592 22.3859 20.912 23.4099 20.912C24.8819 20.912 25.9219 20.296 26.5299 19.064H29.4819C29.0819 20.28 28.3539 21.28 27.2979 22.064C26.2579 22.832 24.9619 23.216 23.4099 23.216C22.1459 23.216 21.0099 22.936 20.0019 22.376C19.0099 21.8 18.2259 21 17.6499 19.976C17.0899 18.936 16.8099 17.736 16.8099 16.376C16.8099 15.016 17.0819 13.824 17.6259 12.8C18.1859 11.76 18.9619 10.96 19.9539 10.4C20.9619 9.84 22.1139 9.56 23.4099 9.56C24.6579 9.56 25.7699 9.832 26.7459 10.376C27.7219 10.92 28.4819 11.688 29.0259 12.68C29.5699 13.656 29.8419 14.784 29.8419 16.064ZM26.9859 15.2C26.9699 14.192 26.6099 13.384 25.9059 12.776C25.2019 12.168 24.3299 11.864 23.2899 11.864C22.3459 11.864 21.5379 12.168 20.8659 12.776C20.1939 13.368 19.7939 14.176 19.6659 15.2H26.9859ZM35.2704 5.24V23H32.5344V5.24H35.2704ZM41.5985 5.24V23H38.8625V5.24H41.5985ZM50.9266 23.216C49.6786 23.216 48.5506 22.936 47.5426 22.376C46.5346 21.8 45.7426 21 45.1666 19.976C44.5906 18.936 44.3026 17.736 44.3026 16.376C44.3026 15.032 44.5986 13.84 45.1906 12.8C45.7826 11.76 46.5906 10.96 47.6146 10.4C48.6386 9.84 49.7826 9.56 51.0466 9.56C52.3106 9.56 53.4546 9.84 54.4786 10.4C55.5026 10.96 56.3106 11.76 56.9026 12.8C57.4946 13.84 57.7906 15.032 57.7906 16.376C57.7906 17.72 57.4866 18.912 56.8786 19.952C56.2706 20.992 55.4386 21.8 54.3826 22.376C53.3426 22.936 52.1906 23.216 50.9266 23.216ZM50.9266 20.84C51.6306 20.84 52.2866 20.672 52.8946 20.336C53.5186 20 54.0226 19.496 54.4066 18.824C54.7906 18.152 54.9826 17.336 54.9826 16.376C54.9826 15.416 54.7986 14.608 54.4306 13.952C54.0626 13.28 53.5746 12.776 52.9666 12.44C52.3586 12.104 51.7026 11.936 50.9986 11.936C50.2946 11.936 49.6386 12.104 49.0306 12.44C48.4386 12.776 47.9666 13.28 47.6146 13.952C47.2626 14.608 47.0866 15.416 47.0866 16.376C47.0866 17.8 47.4466 18.904 48.1666 19.688C48.9026 20.456 49.8226 20.84 50.9266 20.84ZM69.4657 8.528V13.424H75.2257V15.656H69.4657V20.768H75.9457V23H66.7297V6.296H75.9457V8.528H69.4657ZM84.4276 20.552L88.1716 9.776H91.0756L86.0356 23H82.7716L77.7556 9.776H80.6836L84.4276 20.552ZM92.2318 16.328C92.2318 15 92.5038 13.824 93.0478 12.8C93.6078 11.776 94.3598 10.984 95.3038 10.424C96.2638 9.848 97.3198 9.56 98.4718 9.56C99.5118 9.56 100.416 9.768 101.184 10.184C101.968 10.584 102.592 11.088 103.056 11.696V9.776H105.816V23H103.056V21.032C102.592 21.656 101.96 22.176 101.16 22.592C100.36 23.008 99.4478 23.216 98.4238 23.216C97.2878 23.216 96.2478 22.928 95.3038 22.352C94.3598 21.76 93.6078 20.944 93.0478 19.904C92.5038 18.848 92.2318 17.656 92.2318 16.328ZM103.056 16.376C103.056 15.464 102.864 14.672 102.48 14C102.112 13.328 101.624 12.816 101.016 12.464C100.408 12.112 99.7518 11.936 99.0478 11.936C98.3438 11.936 97.6878 12.112 97.0798 12.464C96.4718 12.8 95.9758 13.304 95.5918 13.976C95.2238 14.632 95.0398 15.416 95.0398 16.328C95.0398 17.24 95.2238 18.04 95.5918 18.728C95.9758 19.416 96.4718 19.944 97.0798 20.312C97.7038 20.664 98.3598 20.84 99.0478 20.84C99.7518 20.84 100.408 20.664 101.016 20.312C101.624 19.96 102.112 19.448 102.48 18.776C102.864 18.088 103.056 17.288 103.056 16.376ZM116.081 9.56C117.121 9.56 118.049 9.776 118.865 10.208C119.697 10.64 120.345 11.28 120.809 12.128C121.273 12.976 121.505 14 121.505 15.2V23H118.793V15.608C118.793 14.424 118.497 13.52 117.905 12.896C117.313 12.256 116.505 11.936 115.481 11.936C114.457 11.936 113.641 12.256 113.033 12.896C112.441 13.52 112.145 14.424 112.145 15.608V23H109.409V9.776H112.145V11.288C112.593 10.744 113.161 10.32 113.849 10.016C114.553 9.712 115.297 9.56 116.081 9.56ZM130.731 23.216C129.483 23.216 128.355 22.936 127.347 22.376C126.339 21.8 125.547 21 124.971 19.976C124.395 18.936 124.107 17.736 124.107 16.376C124.107 15.032 124.403 13.84 124.995 12.8C125.587 11.76 126.395 10.96 127.419 10.4C128.443 9.84 129.587 9.56 130.851 9.56C132.115 9.56 133.259 9.84 134.283 10.4C135.307 10.96 136.115 11.76 136.707 12.8C137.299 13.84 137.595 15.032 137.595 16.376C137.595 17.72 137.291 18.912 136.683 19.952C136.075 20.992 135.243 21.8 134.187 22.376C133.147 22.936 131.995 23.216 130.731 23.216ZM130.731 20.84C131.435 20.84 132.091 20.672 132.699 20.336C133.323 20 133.827 19.496 134.211 18.824C134.595 18.152 134.787 17.336 134.787 16.376C134.787 15.416 134.603 14.608 134.235 13.952C133.867 13.28 133.379 12.776 132.771 12.44C132.163 12.104 131.507 11.936 130.803 11.936C130.099 11.936 129.443 12.104 128.835 12.44C128.243 12.776 127.771 13.28 127.419 13.952C127.067 14.608 126.891 15.416 126.891 16.376C126.891 17.8 127.251 18.904 127.971 19.688C128.707 20.456 129.627 20.84 130.731 20.84ZM144.734 24.68H168.734V0.68H144.734V24.68ZM173.534 19.712L170.63 26.336H168.854L170.558 19.712H173.534Z"
        fill="black" />
</svg>